<svg class="flex-shrink-0 me-2" width="24" height="24" viewBox="0 0 24 24" fill="none" xmlns="http://www.w3.org/2000/svg">
    <path d="M18.0225 2.91133C17.2397 2.91133 16.5038 3.21602 15.9507 3.76914C15.3132 4.40664 14.9616 5.25508 14.9616 6.15977V8.98633C14.9616 12.516 13.0772 15.6098 10.26 17.3207H14.2585C18.0225 17.3207 21.0882 14.2598 21.0882 10.491V5.97227C21.0882 4.28945 19.71 2.91133 18.0225 2.91133ZM18.7772 5.97695C18.3882 5.97695 18.0741 5.66289 18.0741 5.27383C18.0741 4.88477 18.3882 4.5707 18.7772 4.5707C19.1663 4.5707 19.4804 4.88477 19.4804 5.27383C19.4804 5.66289 19.1663 5.97695 18.7772 5.97695ZM23.7929 1.71133C23.5163 1.43477 23.071 1.43477 22.7991 1.71133L21.4257 3.08477C20.6054 2.11914 19.3819 1.50977 18.0225 1.50977C16.8647 1.50977 15.7772 1.95977 14.9569 2.78008L0.20535 17.527C0.00378752 17.7285 -0.05715 18.0285 0.0506625 18.291C0.158475 18.5535 0.416288 18.727 0.702225 18.727H5.22097H9.4491L11.8069 21.0848H11.2444C10.8553 21.0848 10.5413 21.3988 10.5413 21.7879C10.5413 22.177 10.8553 22.491 11.2444 22.491H15.7632C16.1522 22.491 16.4663 22.177 16.4663 21.7879C16.4663 21.3988 16.1522 21.0848 15.7632 21.0848H13.7944L11.4366 18.727H14.2585C18.8007 18.727 22.4944 15.0332 22.4944 10.491V5.97227C22.4944 5.39102 22.3819 4.8332 22.1757 4.31758L23.7929 2.70039C24.0694 2.4332 24.0694 1.98789 23.7929 1.71133ZM2.3991 17.3207L13.5554 6.16445V8.98633C13.5554 13.5801 9.81472 17.3207 5.22097 17.3207H2.3991ZM21.0882 10.4957C21.0882 14.2598 18.0272 17.3254 14.2585 17.3254H10.26C13.0772 15.6145 14.9616 12.516 14.9616 8.98633V6.15977C14.9616 5.25508 15.3132 4.40664 15.9507 3.76914C16.5038 3.21602 17.2397 2.91133 18.0225 2.91133C19.71 2.91133 21.0882 4.28477 21.0882 5.97695V10.4957Z" fill="currentColor"></path>
</svg>